<svg xmlns:xlink="http://www.w3.org/1999/xlink" width="342.993" xmlns="http://www.w3.org/2000/svg" height="318.666" id="screenshot-c6654af9-822f-8017-8004-190192cec85d" viewBox="0 0 342.993 318.666" style="-webkit-print-color-adjust: exact;" fill="none" version="1.1"><g id="shape-c6654af9-822f-8017-8004-190192cec85d" rx="0" ry="0"><g id="shape-c6654af9-822f-8017-8004-190192cec85e"><g class="fills" id="fills-c6654af9-822f-8017-8004-190192cec85e"><path rx="0" ry="0" d="M4.349,2.666C-3.176,9.251,1.349,17.666,1.349,17.666L171.349,216.666L341.349,17.666C341.349,17.666,346.375,9.251,338.849,2.666C330.849,-4.334,310.349,4.666,310.349,4.666L231.349,33.666C231.349,33.666,220.409,36.331,213.849,42.666C207.822,48.487,206.349,54.666,206.349,54.666L171.349,188.666L136.349,54.666C136.349,54.666,134.349,48.166,128.349,42.666C121.308,36.211,111.349,33.666,111.349,33.666L32.349,4.666C32.349,4.666,12.349,-4.334,4.349,2.666Z" style="fill: rgb(28, 114, 255); fill-opacity: 1;"/></g></g><g id="shape-c6654af9-822f-8017-8004-190192cec85f"><g class="fills" id="fills-c6654af9-822f-8017-8004-190192cec85f"><path rx="0" ry="0" d="M1.349,17.666L111.349,276.666L171.349,284.666L231.349,276.666L341.349,17.666L171.349,192.666L1.349,17.666Z" style="fill: rgb(30, 83, 219); fill-opacity: 1;"/></g></g><g id="shape-c6654af9-822f-8017-8004-190192cec860"><g class="fills" id="fills-c6654af9-822f-8017-8004-190192cec860"><path rx="0" ry="0" d="M54.349,142.666L111.349,276.666C111.349,276.666,128.349,318.666,172.349,318.666C214.349,318.666,231.349,276.666,231.349,276.666L288.349,142.666L171.349,274.666L54.349,142.666Z" style="fill: rgb(35, 65, 182); fill-opacity: 1;"/></g></g></g></svg>